<?xml version="1.0" standalone="no"?>
<!DOCTYPE svg PUBLIC "-//W3C//DTD SVG 20010904//EN"
 "http://www.w3.org/TR/2001/REC-SVG-20010904/DTD/svg10.dtd">
<svg version="1.0" xmlns="http://www.w3.org/2000/svg"
 width="500.000000pt" height="500.000000pt" viewBox="0 0 500.000000 500.000000"
 preserveAspectRatio="xMidYMid meet">

<g transform="translate(0.000000,500.000000) scale(0.100000,-0.100000)"
fill="#000000" stroke="none">
<path d="M2797 4809 c-434 -36 -1110 -228 -1542 -439 -536 -262 -811 -596
-896 -1090 -19 -108 -16 -417 5 -570 74 -549 308 -1253 542 -1630 205 -333
466 -546 779 -638 149 -44 242 -56 440 -56 307 -1 554 40 994 166 737 210
1216 491 1446 848 146 226 208 457 208 780 -1 346 -75 721 -244 1222 -78 235
-133 367 -225 549 -329 649 -799 916 -1507 858z m409 -110 c509 -71 854 -391
1120 -1041 143 -348 268 -796 320 -1143 26 -171 26 -516 1 -635 -116 -541
-486 -869 -1292 -1146 -522 -180 -1010 -268 -1342 -243 -434 33 -732 213 -991
600 -115 172 -254 483 -355 794 -215 662 -270 1179 -167 1555 27 99 116 278
179 361 201 264 562 486 1079 663 348 119 736 211 1012 239 83 9 365 6 436 -4z"/>
<path d="M2612 4015 c-93 -43 -151 -127 -159 -230 -5 -52 1 -79 42 -203 26
-79 45 -145 43 -146 -8 -7 -469 -158 -472 -155 -1 2 -22 65 -47 139 -27 82
-56 150 -74 174 -67 88 -182 128 -288 101 -90 -23 -147 -69 -188 -155 -36 -73
-31 -150 20 -304 24 -70 39 -132 34 -137 -4 -4 -61 -26 -126 -48 -65 -21 -135
-51 -157 -65 -173 -114 -157 -378 28 -473 90 -46 146 -45 306 7 67 22 127 40
133 40 10 0 153 -410 153 -437 0 -6 -56 -30 -125 -53 -163 -54 -210 -86 -253
-170 -32 -61 -34 -70 -30 -141 5 -89 33 -146 98 -202 44 -37 122 -67 177 -67
19 0 97 21 174 46 78 25 142 44 143 42 2 -2 20 -55 41 -118 49 -150 76 -201
124 -239 59 -47 108 -64 181 -64 125 -1 230 77 265 196 23 76 19 106 -31 259
-25 77 -42 144 -37 148 7 7 463 161 463 156 0 -1 21 -62 46 -136 63 -185 110
-244 222 -276 145 -42 300 40 342 181 21 69 13 137 -34 280 l-43 134 134 45
c174 58 225 98 266 204 67 172 -75 373 -262 372 -27 0 -102 -19 -181 -45 -73
-24 -135 -43 -137 -42 -9 10 -150 448 -145 451 4 2 65 22 135 46 149 49 196
80 241 160 28 49 31 64 31 135 0 63 -5 89 -22 121 -54 101 -124 146 -238 152
-62 3 -85 -1 -200 -41 l-131 -45 -48 144 c-40 118 -56 153 -90 191 -80 91
-213 120 -324 68z m212 -106 c47 -32 65 -68 121 -239 26 -80 52 -151 58 -157
17 -22 59 -14 208 37 158 55 201 60 258 30 126 -64 130 -234 8 -304 -23 -13
-106 -45 -185 -71 -102 -33 -145 -52 -153 -67 -9 -17 5 -67 76 -277 118 -351
114 -339 135 -346 11 -4 94 18 194 51 171 56 175 57 222 44 132 -37 173 -194
76 -291 -31 -30 -62 -44 -195 -88 -114 -38 -162 -59 -172 -75 -13 -20 -9 -37
40 -186 59 -179 63 -209 39 -271 -25 -61 -82 -99 -151 -99 -65 0 -126 28 -152
71 -10 16 -43 102 -72 191 -40 120 -59 163 -74 170 -16 7 -90 -14 -319 -91
-165 -56 -305 -106 -312 -112 -22 -18 -17 -45 36 -204 53 -157 60 -212 36
-269 -46 -110 -218 -128 -294 -31 -12 14 -46 102 -77 196 -49 147 -60 170 -80
175 -16 4 -80 -13 -177 -45 -91 -30 -171 -51 -197 -51 -125 0 -208 137 -149
249 13 25 34 53 48 63 14 10 91 40 171 67 182 61 189 65 189 99 0 26 -168 540
-189 581 -6 10 -17 21 -25 24 -8 3 -88 -19 -178 -48 -89 -30 -176 -55 -193
-55 -42 0 -107 32 -133 65 -58 74 -51 172 16 236 31 30 66 45 195 88 102 34
162 60 171 72 12 18 8 39 -40 182 -60 183 -66 231 -31 292 33 58 88 87 160 82
104 -6 135 -45 203 -254 49 -151 65 -183 93 -183 28 0 595 192 614 208 9 8 17
22 17 30 0 9 -25 92 -56 185 -61 188 -63 211 -18 280 50 76 163 98 238 46z"/>
<path d="M2450 2924 c-335 -114 -320 -108 -320 -136 0 -44 191 -598 209 -608
23 -12 629 188 645 213 8 13 -10 79 -83 299 -51 156 -100 293 -107 306 -10 14
-24 22 -42 21 -15 0 -151 -43 -302 -95z m349 -245 c40 -121 69 -224 65 -229
-5 -4 -112 -42 -237 -83 l-228 -76 -13 32 c-40 97 -140 421 -131 424 63 26
435 151 450 152 18 1 30 -27 94 -220z"/>
</g>
</svg>
